<svg height="204.939015" viewBox="0 0 100 42.374" width="487.950036" xmlns="http://www.w3.org/2000/svg"><path d="m0 42.372h100v-42.373l-100-.0009684v42.373z" fill="#ff0"/><g fill="#040606"><path d="m89.016 22.788c.21014-.36185.21014-.80156.28668-.97442.11248-.19034.53355-.15324.53355-.28668 0-.0556-.30514-.13209-.42107-.2088-.22629-.13344-.14958-.82137-.26456-.82137-.174 0-.3457.47682-.51854.26802-.30397-.38281-1.5661-1.109-2.138-1.319-.21131-.0767.15305-.7066.05787-.76582-.09613-.0567-.34454.38396-.70755.30745-.2861-.0569-.15382-.57373-.30609-.57373-.07672 0-.36436.72619-.57431.66833-.22977-.0569-.53258-.13921-.53258-.13921v-1.9039c0-.32473-.21803-.57662-.49874-.57431h-2.064c-.57296 0-.53469-.41991-.53469-.51623 0-2.5407 3.6882-2.9608 3.6882-6.2846 0-1.4524-.91655-2.427-1.9864-3.2878-.05903-.0371 0 .21111 0 .30628 0 1.5475-5.7519 2.3504-5.7519 5.9236 0 3.1126 3.0964 3.2461 3.0964 3.7252 0 .0952-.19035.13343-.20996.13343h-2.3691c-.24823 0-.46394.15324-.46049.5697l.0023 1.9142c-.23091.0765-.53489-.26802-.68909-.26802-.07652 0-.03711.59277-.17169.67063-.11498.0556-2.2728.82022-2.4664.83983-.30283.0569-.22629-.47798-.398-.47798-.15554 0-.15554.53489-.5372.53489-.22842 0-.41876-.21111-.59046-.21111-.11478 0 .24706.44086.24706.57314 0 .36416-.70524.49644-.70524.74582 0 .13343.66697-.0567.76331-.0567.34339 0 .30628.40261.43742.40261.13459 0 .22957-.46183.3457-.53604.22726-.13344.49644.0952.61141.0952.19015 0-.15324-.45952.01961-.53605 0 0 2.3284-.99192 2.4827-.91655.13344.0777.11594.30628.26802.38282.15189.0756.38281-.53469.38281-.1542v4.6823c-.26918.16937-.84232.26807-1.1486.26807-.15074 0-.07652-.4978-.17169-.4978-.15305 0-.30628.41991-.53469.41991-.20996 0-.5151-.51506-.72408-.51506-.13324 0 .2461.64845.0175.76344-.88059.44085-2.2737.86076-2.2737 2.2529 0 .28878.1542.63448.09383.72619-.05441.13578-.35954.40262-.34224.5174 0 .11484.57314.0754.68909.24943.05576.0928.09517.51392.21131.51392.09267 0 .34108-.32363.55335-.20999.66697.40266 1.8318.84006 2.3689 1.13.13113.0765.05576.49545.13113.53377.1542.0765.45818-.40145.93846-.13459.09633.0394.1915.1924.1915.36409l-.0023 1.5628c0 .2867.13228.36208.28648.40032l5.6964 1.1334s.50587.11363.67755.11363c.19842.008.44434-.001.4303-.48029l-.0023-3.5513c0-.036.04537-.12286.1219-.12286.33416-.001.16594.96291.2413.96291.15189 0 .24823-.64965.44086-.64965.26687 0 .44086.24813.5522.19143.09633-.0568-.0546-.36432-.0546-.55585 0-.17051.49433-.24703 1.1069-.47677.53469-.18903.97442-.40016 1.1473-.40016.13228 0 .22629.36186.34339.36186.09517 0 .11382-.47565.32493-.47565.17055 0 .5522.26573.64968.18919.07537-.0558-.1915-.41991.0173-.57433.1544-.0951.51623-.32243.51623-.41878 0-.0568-.70639-.0776-.74465-.0776-.13343-.0371-.28668-.45726-.38415-.45726-.11017 0-.11017.42014-.28417.55339-.1542.11386-.53489-.40129-.70543-.40129-.09729 0 .11267.38282.11267.69029 0 .30396-1.8516.89676-2.0999.89676-.38281 0-.40241-.47806-.47913-.47806-.11478 0-.11132.58358-.53355.58358-.21111 0-.28668-.15765-.28668-.2715v-4.5871c0-.13114.03826-.30975.28668-.32018.31437-.014.32243.69721.43722.69721.21014 0 .32609-.70659.72639-.70659.30628 0 .5545.42127.746.42127.13324 0-.2286-.43974-.2286-.65085 0-.20993 1.891-.1334 2.6172-1.4143m-11.999 7.0324c-.30514 0-.49644-.61257-.57296-.59161-.09517.0196.02076.51507-.09517.59161-.09517.094-2.1208-.84119-2.274-.99192-.13459-.13459.05806-.32492 0-.45936-.03826-.1149-.3457-.0778-.43837-.1357-.07787-.0756.09267-.42127-.01865-.49547-.09863-.058-.30628.34452-.44086.15097-.05922-.0768-.07537-.20902-.07537-.38071 0-1.1659 1.2401-1.6427 2.0825-1.9291.34224-.11596.22611.32355.34224.34338.13344.0382.15305-.20998.30628-.20998.11594 0 .55566.20998.64968.13346.07652-.0569-.2286-.34338-.13343-.45837.11594-.095 1.0023-.26204.99423-.0348l.0023 4.0826c0 .42794-.32839.38507-.32839.38507m2.1611-16.489c0-2.6372 3.898-4.1465 4.1647-5.4841.28668.26803.32493.7066.32493 1.0894 0 1.6044-2.789 4.2984-2.789 6.2473 0 .21111.01865.26687.01865.40127 0 .19035-.07652.22977-.11382.22977-.46049 0-1.6055-.89905-1.6055-2.4838m3.9363 19.181c0 .40263-.13574.49644-.47798.42103l-3.6485-.72601c-.21111-.0371-.32609-.17167-.32609-.4003v-6.6104c0-.17169.59296-.19151.68814-.11499.17286.15329.11478.70659.22842.70659.1544 0 .5545-.66948.72754-.66948.363 0 .61006.21013.68678.17304.07768-.0396.07768-.34473.17169-.42127.13343-.0927.53469-.0927.74465-.11589.3459-.0187.97577-.0754.97577-.0754.24823 0 .22977.17402.22977.537v7.2962zm-2.0836-8.2359c-.11498-.18797-.05806-.51388-.17169-.51388-.05691 0-.36205.45928-.53604.45928-.17055 0-.45702-.32587-.57201-.32587-.07652 0 .07671.45935-.07652.64851-.09633.13459-1.0129.2332-1.0129.11709v-6.4967c0-.30514.23091-.41992.43856-.41992l3.4201-.001c.41896 0 .5918.13228.5918.5718l.0035 5.831c0 .19033-2.0094.26685-2.0848.12993m5.2345-.66595c-.13343-.0579-.15093-.47684-.22746-.47684-.11594 0-.17516.3807-.4001.43741-.23208.0394-.57431-.24708-.67179-.17288-.09633.0789.21572.62067-.29936.62067-.1542 0-.23321-.17516-.23321-.30861v-4.1638s.0175-.006.24841.0511c.15189.0394.30494.11479.30494.32609 0 .11248-.04057.34224.0373.38165.07998.0394.13324-.0394.17286-.0581.70524-.51509.8781.4003 1.0302.4003.13459 0 .11594-.62891.30628-.62891.1542-.059 1.6241.64851 1.6241 1.108 0 .0952-.19245.11247-.2088.20995-.01846.13459.34339.19015.28533.43973-.02076.1542-.363.34454-.26899.43856.09844.0961.55681-.094.59508-.094.09517 0 .11248.15074.11248.2088 0 .84232-1.9664 1.4734-2.4072 1.2807"/><path d="m58.773 14.676h-.03134l-1.4236-4.4966h-2.0627l2.4549 6.9017v4.9073h2.029v-4.9073l2.4526-6.9017h-2.0605l-1.3584 4.4966m-7.9971 7.3124h2.029v-10.043h1.963v-1.7658h-5.9549v1.7658h1.9628v10.043m-6.4481-9.0455c0-.73678.35974-1.1627 1.014-1.1627.45818 0 .99767.29591 1.0802 1.3099l1.9304-.21227c-.17978-1.6695-1.1625-2.8633-2.8145-2.8633-1.9956 0-3.1394 1.0627-3.1394 2.9443 0 3.3876 4.1207 4.0083 4.1207 6.3461 0 .70408-.47433 1.08-1.1775 1.08-.6543 0-1.1288-.58816-1.2111-1.783l-1.9305.27725c.08229 1.7681 1.1613 3.2716 3.0441 3.2716 1.8968 0 3.2055-1.079 3.2055-3.0246 0-3.2054-4.1221-4.1707-4.1221-6.1834m-2.7118 7.2791h-3.6313v-3.4667h2.6161v-1.7667h-2.6161v-3.0431h3.4038v-1.7658h-5.4329v11.81h5.6604v-1.7681m-9.3522-3.2872h-.03365l-2.4687-6.7542h-1.8818v11.809h1.8319v-7.3762h.03249l2.5847 7.3762h1.767v-11.809h-1.8319v6.7542m-12.723-4.1702h.03249l1.8319 9.2255h.98269l1.8329-9.2255h.03019v9.2255h1.7681v-11.809h-2.6671l-1.4397 6.9017h-.03249l-1.4386-6.9017h-2.6661v11.809h1.7656v-9.2255m-7.4574-2.5841-2.1752 11.809h1.963l.35968-2.6173h2.2239l.35968 2.6173h1.9641l-2.1763-11.809h-2.5186zm.44085 7.4262.80161-5.0711h.03251l.80168 5.0711z"/><path d="m58.713 32.2v-7.1162h1.2228v6.0512h1.9211v1.065h-3.144m-3.1664-2.6418h.985l-.48259-3.0557h-.01961l-.48279 3.0557zm-.39435 2.6416h-1.1834l1.3111-7.1162h1.5185l1.3109 7.1162h-1.1832l-.21706-1.5766h-1.3399l-.21688 1.5766m-5.6201.00031v-7.1162h1.1334l1.4885 4.0698h.0198v-4.0698h1.1044v7.1162h-1.065l-1.5581-4.4457h-.01846v4.4457h-1.1046m-3.3502-1.7547c0 .27039.04653.46873.13824.59641.09267.12865.26321.19249.51279.19249.24936 0 .41992-.0638.51279-.19249.09152-.12768.13805-.32602.13805-.59641v-3.6068c0-.27028-.04653-.46873-.13805-.5964-.09287-.1288-.26341-.1925-.51279-.1925-.24956 0-.4201.0637-.51279.1925-.09171.12767-.13824.3261-.13824.5964zm-1.2215-3.637c0-.24957.03711-.48623.11248-.71004.07537-.22282.19035-.41758.3457-.58124.1544-.16477.34801-.2936.58124-.38974.23321-.0951.51048-.14283.83309-.14283.32243 0 .59969.0477.83291.14283.23321.0961.42684.22496.58124.38974.1542.16366.26918.3584.34454.58124.07537.22381.11363.46049.11363.71004v3.6671c0 .24934-.03826.48607-.11363.70892-.07537.2238-.19035.41758-.34454.58236-.1544.16364-.34801.29342-.58124.3886-.23321.0951-.51048.14381-.83291.14381-.32263 0-.59988-.0487-.83309-.14381-.23321-.0952-.42684-.22496-.58124-.3886-.15535-.1648-.27033-.35856-.3457-.58236-.07537-.22285-.11248-.45958-.11248-.70892zm-2.1986 5.3912h1.2217v-7.1162h-1.2217zm-3.1714-6.0517h-1.1834v-1.0652h3.5883v1.0652h-1.1821v6.0525h-1.2228zm-3.6569 3.4102h.985l-.48259-3.0557h-.01961l-.48279 3.0557zm-.39435 2.6416h-1.1834l1.3111-7.1162h1.5185l1.3109 7.1162h-1.1832l-.21706-1.5766h-1.3399l-.21688 1.5766m-5.6084.00031v-7.1162h1.1334l1.4885 4.0698h.01961v-4.0698h1.1046v7.1162h-1.0652l-1.558-4.4457h-.01865v4.4457h-1.1044m-3.6154-3.9232h.43376c.16363 0 .30397-.0162.41896-.0487.11478-.0336.2088-.0917.28071-.17748.07191-.0859.12536-.19843.15784-.33992.03249-.14151.0498-.31778.0498-.52791 0-.41999-.0696-.70756-.20765-.86198-.13805-.15419-.37128-.23209-.69967-.23209h-.43376v2.188zm.08614 3.9237h-1.2217v-7.1173h1.7149c.68332 0 1.1996.16132 1.5475.48375.34801.32145.52202.86076.52202 1.616 0 .28893-.02442.53603-.07306.73902-.0498.20421-.11594.37703-.19727.51741-.08229.1415-.17516.25536-.2761.33993-.1021.086-.20534.15208-.31089.19842l1.0348 3.2229h-1.2413l-.8677-2.9479c-.07902.0138-.1765.0221-.2913.0244-.11478.005-.22746.006-.33993.006v2.9177m-5.4206-.00031v-7.1162h3.2726v1.0638h-2.0511v1.8342h1.5778v1.0638h-1.5778v2.0894h2.1891v1.065h-3.4107m-3.0003-6.052h-1.1834v-1.0652h3.5882v1.0652h-1.1821v6.0525h-1.2228v-6.0525m-5.5135 6.052v-7.1162h1.1335l1.4884 4.0698h.01976v-4.0698h1.1044v7.1162h-1.065l-1.558-4.4457h-.01855v4.4457h-1.1045m-2.2941-.0003h1.2217v-7.1162h-1.2217z"/></g></svg>