<?xml version="1.0" encoding="UTF-8" standalone="no"?><!DOCTYPE svg PUBLIC "-//W3C//DTD SVG 1.1//EN" "http://www.w3.org/Graphics/SVG/1.1/DTD/svg11.dtd"><svg width="100%" height="100%" viewBox="0 0 420 290" version="1.1" xmlns="http://www.w3.org/2000/svg" xmlns:xlink="http://www.w3.org/1999/xlink" xml:space="preserve" style="fill-rule:evenodd;clip-rule:evenodd;stroke-linejoin:round;stroke-miterlimit:1.41421;"><rect id="centred-english-blue" x="0" y="0" width="420" height="290" style="fill:none;"/><path d="M394.05,261.705c0.625,-2.45 1.584,-6.242 6.194,-6.242c4.799,0 5.328,4.033 5.616,6.242l-11.81,0Zm16.417,7.919c-1.679,2.16 -3.457,4.416 -7.92,4.416c-7.584,0 -8.399,-6.769 -8.639,-8.593l18.912,0c-0.048,-2.688 -0.097,-7.247 -3.504,-10.703c-2.977,-2.977 -6.816,-3.313 -8.929,-3.313c-8.687,0 -13.296,5.857 -13.296,13.058c0,7.534 4.657,13.631 13.489,13.631c8.448,0 10.416,-5.04 11.47,-7.728l-1.583,-0.768Zm-50.888,7.68l2.351,0l6.481,-14.304l6.479,14.304l2.305,0l9.263,-24.768l-5.135,0l-4.225,12.239l-0.72,2.305c-0.527,-1.296 -0.577,-1.536 -1.055,-2.688l-4.898,-11.856l-2.11,0l-6.385,14.496c-0.337,-1.2 -0.431,-1.488 -0.767,-2.593l-4.033,-11.903l-6.672,0l9.121,24.768Zm-15.731,-5.184c-1.247,0.815 -2.783,1.776 -5.039,1.776c-3.217,0 -4.416,-2.256 -4.416,-4.369c0,-3.119 2.495,-4.608 5.327,-4.608c1.633,0 2.881,0.432 4.128,0.913l0,6.288Zm6.193,-9.841c0,-2.255 -0.048,-5.52 -2.449,-7.967c-1.391,-1.44 -4.08,-2.834 -8.256,-2.834c-7.295,0 -9.215,4.226 -10.271,6.578l1.632,0.816c0.96,-1.296 2.687,-3.648 6.767,-3.648c1.825,0 4.561,0.623 5.711,3.215c0.53,1.201 0.625,2.496 0.673,3.744c-1.921,-0.576 -3.455,-1.055 -5.807,-1.055c-5.712,0 -10.369,3.168 -10.369,8.832c0,4.416 3.168,7.872 8.161,7.872c4.56,0 6.959,-2.401 8.015,-3.504l0,2.783l6.193,0l0,-14.832Zm-37.228,-9.743l-3.889,0l0,3.84l3.889,0l0,13.584c0,2.16 0.239,4.319 2.016,6.047c1.872,1.872 4.416,2.016 5.568,2.016c3.168,0 4.895,-1.104 6.336,-1.967l-0.769,-1.537c-0.767,0.24 -1.439,0.481 -2.447,0.481c-0.48,0 -2.4,0 -3.553,-2.161c-0.479,-0.816 -0.767,-1.824 -0.767,-3.887l0,-12.576l5.616,0l0,-3.84l-5.616,0l0,-6.673l-6.384,0l0,6.673Zm-15.902,0l-6.432,0l0,24.575l6.432,0l0,-19.055c1.103,-0.72 2.544,-1.68 4.895,-1.68c1.777,0 3.025,0.576 4.225,1.151l0,-5.567c-0.576,-0.097 -1.2,-0.144 -1.824,-0.144c-4.369,0 -6.336,2.543 -7.296,3.791l0,-3.071Zm-29.242,9.169c0.624,-2.45 1.584,-6.242 6.193,-6.242c4.8,0 5.328,4.033 5.616,6.242l-11.809,0Zm16.416,7.919c-1.679,2.16 -3.456,4.416 -7.919,4.416c-7.584,0 -8.401,-6.769 -8.64,-8.593l18.912,0c-0.049,-2.688 -0.097,-7.247 -3.504,-10.703c-2.976,-2.977 -6.816,-3.313 -8.929,-3.313c-8.687,0 -13.296,5.857 -13.296,13.058c0,7.534 4.657,13.631 13.489,13.631c8.448,0 10.416,-5.04 11.471,-7.728l-1.584,-0.768Zm-44.586,-10.945c0,-0.048 1.536,-3.216 5.232,-3.216c2.446,0 4.031,1.392 4.991,3.361c0.96,1.92 1.105,4.128 1.105,5.713c0,8.062 -3.744,9.742 -6.241,9.742c-2.735,0 -4.175,-1.728 -5.087,-2.832l0,-12.768Zm-6.432,18.432l6.432,0l0,-2.543c0.816,1.008 2.976,3.647 7.152,3.647c4.8,0 10.895,-3.743 10.895,-13.631c0,-7.632 -3.887,-13.057 -10.463,-13.057c-4.658,0 -6.625,2.545 -7.584,3.793l0,-12.096l-6.432,0l0,33.887Zm-15.456,-11.951l-9.937,0l4.897,-10.992l5.04,10.992Zm-21.265,11.951l5.952,0l3.36,-7.487l14.016,0l3.361,7.487l7.296,0l-15.552,-33.887l-2.354,0l-16.079,33.887Zm-17.327,-33.887l-4.368,0l0,33.887l4.368,0l0,-33.887Zm-13.958,21.6c0,7.822 -3.408,10.654 -7.152,10.654c-2.448,0 -4.992,-1.391 -6.192,-4.606c-0.384,-0.912 -0.96,-2.976 -0.96,-6.144c0,-5.137 1.872,-10.369 7.2,-10.369c4.944,0 7.104,4.945 7.104,10.465Zm4.656,-0.287c0,-7.49 -4.416,-12.866 -11.568,-12.866c-6.528,0 -12.048,4.225 -12.048,13.633c0,2.256 0.288,7.008 3.936,10.174c2.688,2.258 5.712,2.642 7.68,2.642c5.328,0 8.16,-2.642 9.36,-4.177c1.632,-2.111 2.64,-5.279 2.64,-9.406Zm-32.966,6.238c-1.104,0.912 -3.072,2.545 -5.855,2.545c-4.705,0 -6.673,-4.561 -6.673,-9.217c0,-5.519 2.544,-9.311 6.48,-9.311c1.2,0 2.448,0.383 3.552,1.104c1.392,0.912 2.016,1.967 2.496,2.783l0,12.096Zm0,-18.096l0,3.168c-1.008,-1.439 -2.928,-4.176 -7.248,-4.176c-5.136,0 -9.84,4.369 -9.84,12.768c0,7.729 4.128,11.953 9.552,11.953c4.752,0 6.768,-2.736 7.536,-3.746l0,1.394c0,3.456 0,5.712 -1.728,7.68c-1.296,1.535 -3.312,2.207 -5.328,2.207c-2.256,0 -4.608,-0.865 -6.192,-2.303c-1.104,-1.009 -1.536,-1.92 -1.92,-2.736l-1.392,0.48c1.44,6.864 7.2,7.632 9.792,7.632c4.128,0 6.913,-1.537 8.544,-3.168c2.592,-2.641 2.592,-6 2.592,-9.649l0,-21.504l-4.368,0Zm-20.817,5.809c-0.144,-1.105 -0.48,-3.408 -2.976,-5.137c-1.776,-1.248 -4.128,-1.68 -6.048,-1.68c-5.52,0 -8.88,3.168 -8.88,7.248c0,4.705 4.224,6.049 6.672,6.817c2.64,0.815 3.888,1.199 4.848,1.68c0.672,0.336 2.448,1.295 2.448,3.599c0,2.448 -2.16,4.08 -5.472,4.08c-2.448,0 -4.8,-0.863 -6.384,-2.256c-1.104,-0.96 -1.68,-1.967 -2.112,-2.687c-0.336,0.143 -0.912,0.287 -1.296,0.432c0.24,1.152 0.672,3.648 3.216,5.568c1.92,1.392 4.32,1.92 6.72,1.92c2.64,0 5.136,-0.528 7.104,-2.112c1.68,-1.345 2.688,-3.265 2.688,-5.568c0,-5.183 -4.944,-6.625 -7.392,-7.345c-0.336,-0.095 -2.4,-0.719 -2.544,-0.768c-2.496,-0.815 -4.128,-1.776 -4.128,-3.791c0,-2.16 2.064,-3.744 5.232,-3.744c4.56,0 6.24,2.783 7.056,4.128c0.336,-0.097 0.912,-0.288 1.248,-0.384Zm-23.515,-5.809l-7.44,17.041l-6.912,-17.041l-4.848,0l9.504,22.129c-3.216,7.295 -5.232,9.551 -9.504,10.848l0,1.296c6.192,0.288 9.408,-3.408 12.336,-10.08l10.656,-24.193l-3.792,0Zm-25.905,2.784l5.04,0l0,-2.784l-5.04,0l0,-2.351c0,-2.113 0,-3.217 0.528,-4.08c0.48,-0.817 1.488,-1.537 3.024,-1.537c1.152,0 1.968,0.336 2.64,0.625c0.192,-0.289 0.576,-0.721 0.768,-1.008c-0.528,-0.576 -1.824,-2.113 -4.8,-2.113c-2.016,0 -3.456,0.72 -4.32,1.345c-2.16,1.631 -2.208,3.887 -2.208,6.096l0,3.023l-3.457,0l0,2.784l3.457,0l0,21.648l4.368,0l0,-21.648Zm-15.979,-9.936c0,1.535 1.2,2.545 2.496,2.545c0.816,0 2.592,-0.481 2.592,-2.689c0,-1.248 -0.96,-2.495 -2.496,-2.495c-1.536,0 -2.592,1.152 -2.592,2.639Zm4.704,7.104l-4.368,0l0,24.48l4.368,0l0,-24.48Zm-16.67,5.905c0.48,-0.673 2.112,-2.929 5.04,-2.929c1.632,0 2.976,0.672 3.744,1.008l0,-3.936c-0.672,-0.287 -1.296,-0.576 -2.544,-0.576c-3.504,0 -5.424,2.785 -6.24,3.937l0,-3.361l-4.416,0l0,24.432l4.416,0l0,-18.575Zm-25.886,-12.48l5.136,0c4.128,0 5.616,0.959 6.624,2.159c0.767,0.913 1.392,2.353 1.392,3.985c0,2.928 -1.824,5.856 -6.24,7.055c-2.832,0.769 -5.568,0.672 -6.912,0.624l0,-13.823Zm0,15.649c2.784,0.142 3.072,0.142 4.08,0.142c9.936,0 13.872,-4.656 13.872,-10.08c0,-4.32 -2.496,-6.576 -4.656,-7.535c-1.92,-0.864 -4.128,-1.008 -7.344,-1.008l-10.608,0l0,33.887l4.656,0l0,-15.406Z" style="fill:#242f60;fill-rule:nonzero;"/><path d="M413.307,203.859l-7.44,17.04l-6.912,-17.04l-4.848,0l9.504,22.128c-3.216,7.296 -5.233,9.552 -9.504,10.849l0,1.295c6.191,0.288 9.408,-3.407 12.336,-10.08l10.656,-24.192l-3.792,0Zm-26.543,2.785l5.136,0l0,-2.785l-5.136,0l0,-6.48l-4.368,0l0,6.48l-3.36,0l0,2.785l3.36,0l0,15.215c0,2.928 0.191,4.896 2.16,6.288c0.72,0.481 2.111,1.152 3.984,1.152c2.832,0 4.368,-1.344 5.28,-2.111c-0.193,-0.336 -0.481,-0.817 -0.672,-1.153c-0.816,0.384 -1.681,0.817 -2.93,0.817c-3.454,0 -3.454,-3.073 -3.454,-6.193l0,-14.015Zm-15.816,-9.937c0,1.536 1.2,2.545 2.496,2.545c0.815,0 2.592,-0.481 2.592,-2.689c0,-1.248 -0.96,-2.496 -2.496,-2.496c-1.537,0 -2.592,1.153 -2.592,2.64Zm4.704,7.105l-4.368,0l0,24.479l4.368,0l0,-24.479Zm-9.345,5.855c-0.144,-1.104 -0.48,-3.408 -2.976,-5.136c-1.776,-1.248 -4.128,-1.679 -6.048,-1.679c-5.52,0 -8.88,3.168 -8.88,7.248c0,4.704 4.223,6.047 6.672,6.815c2.639,0.816 3.887,1.2 4.847,1.681c0.671,0.336 2.449,1.296 2.449,3.599c0,2.449 -2.161,4.08 -5.472,4.08c-2.448,0 -4.8,-0.864 -6.384,-2.255c-1.104,-0.96 -1.681,-1.969 -2.112,-2.689c-0.336,0.145 -0.912,0.288 -1.296,0.433c0.24,1.151 0.672,3.647 3.216,5.567c1.92,1.393 4.32,1.921 6.719,1.921c2.641,0 5.137,-0.528 7.105,-2.112c1.68,-1.345 2.687,-3.265 2.687,-5.569c0,-5.183 -4.943,-6.624 -7.391,-7.343c-0.336,-0.097 -2.401,-0.721 -2.544,-0.769c-2.496,-0.815 -4.128,-1.775 -4.128,-3.792c0,-2.16 2.063,-3.744 5.231,-3.744c4.561,0 6.241,2.784 7.057,4.128c0.336,-0.096 0.912,-0.287 1.248,-0.384Zm-29.534,0.048c0.479,-0.671 2.111,-2.928 5.04,-2.928c1.632,0 2.976,0.672 3.744,1.008l0,-3.936c-0.673,-0.288 -1.298,-0.576 -2.544,-0.576c-3.505,0 -5.425,2.784 -6.24,3.937l0,-3.361l-4.416,0l0,24.432l4.416,0l0,-18.576Zm-27.672,3.744c0.672,-5.616 4.56,-7.584 7.487,-7.584c2.401,0 6.721,1.44 7.057,7.584l-14.544,0Zm18.816,2.641c0.047,-1.729 0.192,-6.96 -3.6,-10.464c-1.92,-1.729 -4.512,-2.784 -7.632,-2.784c-6.576,0 -12.192,4.847 -12.192,13.343c0,8.737 5.759,13.104 12.24,13.104c8.399,0 10.271,-6.096 10.752,-7.823c-0.336,-0.097 -0.864,-0.336 -1.2,-0.481c-0.865,1.344 -3.312,4.992 -8.496,4.992c-0.72,0 -4.176,0 -6.624,-3.168c-1.873,-2.496 -2.016,-5.328 -2.114,-6.719l18.866,0Zm-27.988,-12.241l-6.962,16.321c-0.383,0.864 -0.43,1.151 -0.526,1.632c-0.192,-0.817 -0.433,-1.441 -0.481,-1.584l-6.671,-16.369l-4.752,0l10.704,24.72l1.488,0l10.8,-24.72l-3.6,0Zm-27.364,-7.152c0,1.536 1.2,2.545 2.496,2.545c0.815,0 2.592,-0.481 2.592,-2.689c0,-1.248 -0.96,-2.496 -2.496,-2.496c-1.536,0 -2.592,1.153 -2.592,2.64Zm4.704,7.105l-4.368,0l0,24.479l4.368,0l0,-24.479Zm-10.339,7.295c0,-2.255 -0.049,-4.56 -2.064,-6.432c-0.482,-0.384 -2.067,-1.823 -5.616,-1.823c-5.088,0 -7.392,3.12 -8.352,4.416l0,-3.409l-4.32,0l0,24.432l4.32,0l0,-18.191c1.68,-2.832 4.224,-4.08 6.576,-4.08c1.44,0 4.079,0.576 4.799,3.215c0.336,1.296 0.336,2.544 0.336,5.184l0,13.872l4.321,0l0,-17.184Zm-26.784,-16.752l-4.608,0l0,26.4c-2.161,2.448 -6,5.28 -10.416,5.28c-3.216,0 -5.808,-1.488 -6.96,-3.311c-0.865,-1.345 -1.201,-3.217 -1.201,-6.865l0,-21.504l-4.607,0l0,23.568c0,3.553 0.576,6 2.592,8.064c1.824,1.92 4.895,3.265 8.928,3.265c4.51,0 8.255,-1.44 11.664,-6l0,5.039l4.608,0l0,-33.936Zm-54.24,28.944c-1.248,0.816 -2.784,1.776 -5.04,1.776c-3.216,0 -4.416,-2.256 -4.416,-4.368c0,-3.12 2.496,-4.607 5.328,-4.607c1.632,0 2.88,0.431 4.128,0.912l0,6.287Zm6.192,-9.84c0,-2.256 -0.048,-5.52 -2.448,-7.968c-1.392,-1.44 -4.08,-2.832 -8.256,-2.832c-7.296,0 -9.216,4.224 -10.272,6.576l1.632,0.816c0.96,-1.296 2.688,-3.648 6.768,-3.648c1.824,0 4.56,0.624 5.712,3.216c0.528,1.2 0.624,2.496 0.672,3.744c-1.92,-0.576 -3.456,-1.055 -5.808,-1.055c-5.712,0 -10.368,3.168 -10.368,8.832c0,4.416 3.168,7.872 8.16,7.872c4.56,0 6.96,-2.401 8.016,-3.505l0,2.784l6.192,0l0,-14.832Zm-43.723,-0.576c0.624,-2.447 1.584,-6.239 6.192,-6.239c4.8,0 5.329,4.031 5.616,6.239l-11.808,0Zm16.416,7.921c-1.68,2.159 -3.456,4.416 -7.92,4.416c-7.584,0 -8.4,-6.769 -8.64,-8.592l18.912,0c-0.048,-2.689 -0.096,-7.249 -3.504,-10.705c-2.976,-2.976 -6.816,-3.312 -8.928,-3.312c-8.688,0 -13.296,5.856 -13.296,13.056c0,7.536 4.656,13.632 13.488,13.632c8.448,0 10.416,-5.039 11.472,-7.728l-1.584,-0.767Zm-46.842,1.055c0.144,1.153 0.432,2.928 2.064,4.608c1.056,1.056 3.504,2.832 8.304,2.832c7.056,0 10.464,-3.984 10.464,-8.255c0,-2.065 -0.768,-3.889 -1.92,-5.089c-1.392,-1.439 -3.264,-1.968 -4.608,-2.304c-0.912,-0.24 -1.824,-0.431 -2.736,-0.624c-2.16,-0.576 -4.368,-1.2 -4.368,-3.408c0,-1.584 1.392,-3.264 4.896,-3.264c4.848,0 6.048,2.497 6.48,3.36l1.68,-0.48c-0.192,-0.96 -0.48,-2.399 -1.92,-3.887c-1.536,-1.584 -4.032,-2.689 -7.296,-2.689c-7.152,0 -10.32,4.32 -10.32,8.256c0,4.464 3.696,5.856 4.656,6.192c1.104,0.432 2.208,0.672 3.312,0.913c3.12,0.671 4.704,1.295 5.424,2.879c0.144,0.432 0.239,0.816 0.239,1.201c0,0.143 0,2.399 -2.687,3.263c-0.816,0.288 -1.632,0.336 -2.4,0.336c-2.688,0 -4.992,-0.912 -6.336,-2.256c-0.672,-0.672 -0.96,-1.343 -1.248,-1.967l-1.68,0.383Zm-3.639,-10.175c0,-2.065 -0.144,-4.513 -1.968,-6.432c-1.296,-1.345 -3.36,-2.257 -5.904,-2.257c-4.656,0 -6.768,2.496 -8.016,3.937l0,-3.217l-6.384,0l0,24.576l6.384,0l0,-18.288c1.104,-1.248 2.688,-3.024 5.328,-3.024c2.304,0 3.504,1.488 3.888,2.88c0.24,0.816 0.24,1.68 0.24,2.496l0,15.936l6.432,0l0,-16.607Zm-33.763,11.615c-1.248,0.816 -2.784,1.776 -5.04,1.776c-3.216,0 -4.416,-2.256 -4.416,-4.368c0,-3.12 2.496,-4.607 5.328,-4.607c1.632,0 2.88,0.431 4.128,0.912l0,6.287Zm6.192,-9.84c0,-2.256 -0.048,-5.52 -2.448,-7.968c-1.392,-1.44 -4.08,-2.832 -8.256,-2.832c-7.296,0 -9.216,4.224 -10.272,6.576l1.631,0.816c0.961,-1.296 2.689,-3.648 6.769,-3.648c1.824,0 4.56,0.624 5.712,3.216c0.528,1.2 0.624,2.496 0.672,3.744c-1.92,-0.576 -3.456,-1.055 -5.808,-1.055c-5.712,0 -10.368,3.168 -10.368,8.832c0,4.416 3.168,7.872 8.16,7.872c4.56,0 6.96,-2.401 8.016,-3.505l0,2.784l6.192,0l0,-14.832Zm-48.921,15.024l2.352,0l6.48,-14.303l6.48,14.303l2.304,0l9.264,-24.768l-5.136,0l-4.224,12.24l-0.72,2.304c-0.528,-1.296 -0.576,-1.535 -1.056,-2.688l-4.896,-11.856l-2.112,0l-6.384,14.496c-0.336,-1.199 -0.432,-1.487 -0.768,-2.592l-4.032,-11.904l-6.672,0l9.12,24.768Zm-35.318,-9.312c0.288,1.776 0.72,4.513 3.072,6.816c3.216,3.216 7.92,3.312 9.648,3.312c1.44,0 7.056,0 10.704,-3.792c1.728,-1.823 2.976,-4.512 2.976,-7.44c0,-2.639 -1.056,-4.992 -2.688,-6.528c-2.208,-2.208 -5.712,-3.023 -8.064,-3.552c-3.648,-0.719 -6.24,-1.248 -7.248,-3.744c-0.24,-0.624 -0.288,-1.248 -0.288,-1.632c0,-3.504 3.408,-5.232 7.248,-5.232c2.928,0 5.28,0.96 6.768,2.4c0.864,0.865 1.248,1.68 1.68,2.737l1.968,-0.529c-0.144,-1.151 -0.384,-3.504 -2.448,-5.616c-2.928,-3.023 -7.584,-3.072 -8.976,-3.072c-10.992,0 -13.056,6.816 -13.056,10.56c0,7.777 7.152,9.216 10.992,9.984c4.128,0.816 7.056,1.872 7.056,5.52c0,2.88 -2.352,5.808 -7.152,5.808c-2.88,0 -5.712,-0.863 -7.776,-2.88c-1.248,-1.247 -1.872,-2.544 -2.496,-3.792l-1.92,0.672Z" style="fill:#242f60;fill-rule:nonzero;"/><path d="M229.701,126.939c-1.735,-0.699 -3.775,-1.051 -6.074,-1.051c-5.254,0 -10.502,1.8 -12.706,2.667c-0.37,0.172 -1.102,0.446 -0.822,0.339c0,0 -0.19,-0.064 -0.799,-0.331c-2.189,-0.864 -7.456,-2.675 -12.73,-2.675c-2.299,0 -4.338,0.352 -6.073,1.051l0,-26.783c1.012,-0.34 3.774,-1.135 7.168,-1.135c4.428,0 8.627,1.522 11.753,4.115l0.681,0.782l0.68,-0.782c3.128,-2.593 7.327,-4.115 11.754,-4.115c3.393,0 6.155,0.795 7.168,1.135l0,26.783Zm-51.23,-31.766c-1.944,0 -3.518,-1.575 -3.518,-3.519c0,-1.943 1.574,-3.519 3.518,-3.519c1.944,0 3.518,1.576 3.518,3.519c0,1.944 -1.574,3.519 -3.518,3.519Zm72.808,26.167c-2.01,-4.063 -5.965,-10.203 -7.001,-11.471l-0.207,0.47c-0.021,0.084 -1.833,7.959 -2.42,11.139c0.474,-0.24 1.282,-0.704 1.971,-1.097l0.618,-0.354l0.018,0.467c0.219,5.39 -0.745,10.071 -2.866,13.912l-0.039,0.072c-0.39,0.067 -0.804,0.122 -1.216,0.162l-6.889,-5.14l0,-25.665c0,-0.33 -0.128,-0.64 -0.36,-0.869c-0.171,-0.173 -0.404,-0.373 -0.684,-0.558l14.535,-11.232c0.667,-0.515 0.759,-1.485 0.201,-2.118c-0.209,-0.239 -0.418,-0.479 -0.627,-0.719c-0.507,-0.576 -1.373,-0.664 -1.983,-0.198l-14.184,10.797c-1.411,-0.449 -4.364,-1.239 -7.613,-1.239c-3.972,0 -7.493,0.991 -10.505,2.951l0,-4.331c1.429,-0.077 3.477,-0.36 5.551,-1.243c0.333,-0.141 0.553,-0.488 0.562,-0.877l0.082,-3.448c0.009,-0.373 -0.179,-0.718 -0.484,-0.889c-0.8,-0.443 -2.61,-1.22 -5.711,-1.459l0,-0.665c0,-0.627 -0.507,-1.134 -1.132,-1.134l-1.594,0c-0.627,0 -1.133,0.507 -1.133,1.134l0,0.665c-3.101,0.239 -4.91,1.016 -5.71,1.459c-0.306,0.171 -0.493,0.516 -0.485,0.889l0.083,3.448c0.009,0.389 0.229,0.736 0.562,0.877c2.074,0.883 4.122,1.166 5.55,1.243l0,4.331c-3.011,-1.96 -6.532,-2.951 -10.504,-2.951c-2.81,0 -5.399,0.591 -6.96,1.041l-6.269,-4.64c0.289,-0.726 0.448,-1.518 0.448,-2.347c0,-3.514 -2.848,-6.362 -6.362,-6.362c-3.514,0 -6.364,2.848 -6.364,6.362c0,3.515 2.85,6.364 6.364,6.364c1.278,0 2.468,-0.378 3.466,-1.028l6.705,4.963c-0.609,0.226 -1.085,0.616 -1.384,0.914c-0.231,0.229 -0.359,0.539 -0.359,0.869l0,25.199l-4.796,3.55c-0.75,0.021 -1.516,0.197 -2.012,0.54c-3.817,-5.506 -6.871,-12.613 -6.63,-19.407c-3.211,7.183 -0.466,15.733 3.336,22.253l-1.381,0.929c-0.181,0.122 0.135,0.912 0.708,1.763l0.589,0.875c0.572,0.85 1.183,1.442 1.366,1.32l1.58,-1.064c5.097,5.474 12.368,10.476 20.079,9.54c-6.578,-1.9 -12.232,-6.506 -16.41,-11.838c0.384,-0.304 0.541,-1.034 0.782,-1.595l6.586,-4.875c1.919,-0.621 4.248,-1.209 6.206,-1.209c3.104,0 6.037,0.462 8.469,1.233c-0.006,0.013 0.028,0.021 0.096,0.032l2.658,0.854c-0.005,0.047 -0.007,0.096 -0.007,0.146l0,12.184c0,0.828 0.672,1.502 1.502,1.502l0.854,0c0.831,0 1.503,-0.674 1.503,-1.502l0,-12.184c0,-0.05 -0.002,-0.099 -0.007,-0.146l2.66,-0.854c0.067,-0.011 0.101,-0.019 0.096,-0.032c2.431,-0.771 5.364,-1.233 8.468,-1.233c1.604,0 3.458,0.395 5.13,0.88l9.115,6.786c0.13,0.539 0.247,1.108 0.325,1.666c-3.817,3.763 -8.395,5.484 -11.583,6.266l-0.39,0.094l0.04,-0.399c0.055,-0.547 0.121,-1.103 0.183,-1.603c0.055,-0.444 0.112,-0.927 0.142,-1.263c-2.631,1.776 -8.961,6.378 -8.999,6.401l-0.369,0.356c1.659,0.342 8.465,1.129 12.798,1.189c-0.473,-0.385 -1.137,-0.922 -1.703,-1.375l-0.434,-0.344l0.533,-0.15c3.235,-0.912 7.76,-2.721 11.697,-6.244c2.005,-0.438 4.815,-1.654 4.815,-1.654c0,0 0,-2.238 -0.164,-4.165c2.582,-4.44 3.758,-9.838 3.487,-16.06l-0.022,-0.475l0.429,0.209c0.781,0.381 2.163,1.022 3.004,1.409Z" style="fill:#242f60;fill-rule:nonzero;"/><path d="M212.175,105.418c-0.038,0.124 -0.024,0.254 0.039,0.367l0.044,0.077c0.08,0.15 0.238,0.244 0.409,0.244c0.071,0 0.138,-0.016 0.202,-0.046c1.214,-0.576 4.468,-1.915 8.465,-1.915c1.292,0 2.562,0.143 3.772,0.424l0.078,0.013l0.027,0c0.21,0 0.397,-0.141 0.454,-0.35l0.019,-0.084c0.031,-0.124 0.013,-0.252 -0.054,-0.363c-0.065,-0.108 -0.17,-0.184 -0.295,-0.215c-1.305,-0.305 -2.669,-0.461 -4.053,-0.461c-4.225,0 -7.607,1.418 -8.86,2.028c-0.118,0.054 -0.208,0.158 -0.247,0.281Z" style="fill:#242f60;fill-rule:nonzero;"/><path d="M212.258,108.883c0.081,0.151 0.239,0.245 0.409,0.245c0.071,0 0.137,-0.017 0.202,-0.045c1.205,-0.578 4.44,-1.916 8.46,-1.916c1.295,0 2.565,0.142 3.777,0.424l0.079,0.013l0.026,0c0.21,0 0.396,-0.142 0.455,-0.352l0.018,-0.081c0.032,-0.127 0.013,-0.256 -0.053,-0.365c-0.065,-0.109 -0.17,-0.183 -0.295,-0.214c-1.306,-0.304 -2.669,-0.462 -4.054,-0.462c-4.22,0 -7.601,1.417 -8.862,2.029c-0.121,0.061 -0.208,0.162 -0.245,0.285c-0.036,0.122 -0.025,0.253 0.039,0.367l0.044,0.072Z" style="fill:#242f60;fill-rule:nonzero;"/><path d="M225.336,109.421c-1.305,-0.306 -2.67,-0.46 -4.055,-0.46c-4.219,0 -7.6,1.416 -8.861,2.026c-0.12,0.061 -0.207,0.163 -0.244,0.287c-0.039,0.123 -0.025,0.252 0.039,0.367l0.042,0.078c0.082,0.15 0.24,0.242 0.411,0.242c0.07,0 0.138,-0.016 0.202,-0.045c1.213,-0.577 4.467,-1.915 8.463,-1.915c1.293,0 2.563,0.143 3.773,0.424l0.078,0.013l0.026,0c0.212,0 0.398,-0.142 0.455,-0.35l0.019,-0.084c0.032,-0.123 0.014,-0.251 -0.051,-0.359c-0.065,-0.111 -0.172,-0.191 -0.297,-0.224Z" style="fill:#242f60;fill-rule:nonzero;"/><path d="M212.253,114.829c0.082,0.15 0.24,0.243 0.41,0.243c0.069,0 0.135,-0.015 0.202,-0.048c1.209,-0.574 4.455,-1.916 8.465,-1.916c1.294,0 2.565,0.144 3.776,0.427l0.078,0.011l0.026,0c0.212,0 0.398,-0.138 0.455,-0.35l0.018,-0.081c0.033,-0.127 0.015,-0.257 -0.053,-0.365c-0.065,-0.109 -0.17,-0.185 -0.294,-0.214c-1.307,-0.306 -2.673,-0.46 -4.058,-0.46c-4.236,0 -7.607,1.416 -8.862,2.026c-0.119,0.06 -0.207,0.162 -0.246,0.291c-0.037,0.121 -0.024,0.252 0.038,0.36l0.045,0.076Z" style="fill:#242f60;fill-rule:nonzero;"/><path d="M225.331,115.416c-1.306,-0.307 -2.67,-0.461 -4.055,-0.461c-4.224,0 -7.603,1.417 -8.859,2.026c-0.121,0.057 -0.207,0.157 -0.245,0.281c-0.04,0.124 -0.026,0.255 0.037,0.365l0.043,0.081c0.083,0.149 0.241,0.241 0.412,0.241c0.068,0 0.134,-0.014 0.202,-0.045c1.207,-0.575 4.449,-1.917 8.463,-1.917c1.294,0 2.564,0.143 3.777,0.427l0.078,0.011l0.025,0c0.211,0 0.398,-0.138 0.457,-0.348l0.018,-0.084c0.032,-0.123 0.013,-0.253 -0.054,-0.363c-0.065,-0.109 -0.172,-0.186 -0.299,-0.214Z" style="fill:#242f60;fill-rule:nonzero;"/><path d="M225.336,118.373c-1.308,-0.307 -2.67,-0.462 -4.055,-0.462c-4.218,0 -7.6,1.417 -8.861,2.027c-0.12,0.062 -0.207,0.164 -0.244,0.288c-0.037,0.12 -0.026,0.25 0.038,0.363l0.043,0.076c0.082,0.149 0.24,0.243 0.411,0.243c0.07,0 0.138,-0.015 0.202,-0.047c1.213,-0.575 4.467,-1.915 8.464,-1.915c1.293,0 2.562,0.143 3.772,0.426l0.078,0.011l0.026,0c0.212,0 0.398,-0.139 0.455,-0.348l0.019,-0.085c0.032,-0.123 0.014,-0.253 -0.054,-0.364c-0.066,-0.108 -0.171,-0.185 -0.294,-0.213Z" style="fill:#242f60;fill-rule:nonzero;"/><path d="M225.341,121.339c-1.306,-0.305 -2.67,-0.461 -4.055,-0.461c-4.221,0 -7.601,1.416 -8.861,2.026c-0.119,0.06 -0.208,0.163 -0.244,0.286c-0.038,0.124 -0.024,0.255 0.076,0.439c0.081,0.151 0.239,0.246 0.411,0.246c0.07,0 0.138,-0.016 0.202,-0.046c1.213,-0.576 4.466,-1.915 8.463,-1.915c1.293,0 2.562,0.143 3.773,0.424l0.078,0.013l0.026,0c0.212,0 0.398,-0.142 0.454,-0.345l0.019,-0.084c0.033,-0.128 0.015,-0.259 -0.053,-0.368c-0.062,-0.108 -0.169,-0.184 -0.289,-0.215Z" style="fill:#242f60;fill-rule:nonzero;"/><path d="M205.264,114.103c-1.254,-0.61 -4.626,-2.027 -8.862,-2.027c-1.385,0 -2.751,0.155 -4.058,0.461c-0.125,0.028 -0.23,0.105 -0.295,0.213c-0.065,0.107 -0.084,0.239 -0.053,0.361l0.019,0.087c0.057,0.205 0.244,0.349 0.454,0.349l0.079,-0.005l0.026,-0.006c1.211,-0.283 2.481,-0.427 3.777,-0.427c4.008,0 7.256,1.341 8.465,1.916c0.065,0.032 0.131,0.046 0.201,0.046c0.173,0 0.326,-0.093 0.409,-0.243l0.044,-0.074c0.063,-0.112 0.077,-0.242 0.038,-0.363c-0.037,-0.125 -0.126,-0.229 -0.244,-0.288Z" style="fill:#242f60;fill-rule:nonzero;"/><path d="M205.264,116.981c-1.258,-0.609 -4.638,-2.026 -8.86,-2.026c-1.385,0 -2.749,0.154 -4.056,0.461c-0.125,0.028 -0.231,0.105 -0.301,0.216c-0.064,0.11 -0.082,0.24 -0.051,0.358l0.019,0.087c0.057,0.207 0.244,0.35 0.454,0.35l0.079,-0.007l0.026,-0.005c1.211,-0.284 2.482,-0.427 3.778,-0.427c4.01,0 7.256,1.341 8.464,1.916c0.065,0.032 0.131,0.047 0.201,0.047c0.171,0 0.328,-0.095 0.408,-0.243l0.044,-0.079c0.064,-0.112 0.078,-0.243 0.039,-0.368c-0.04,-0.125 -0.127,-0.225 -0.244,-0.28Z" style="fill:#242f60;fill-rule:nonzero;"/><path d="M205.258,119.938c-1.258,-0.609 -4.64,-2.026 -8.859,-2.026c-1.384,0 -2.747,0.153 -4.056,0.462c-0.124,0.027 -0.229,0.104 -0.294,0.213c-0.066,0.11 -0.084,0.242 -0.053,0.361l0.019,0.087c0.057,0.204 0.243,0.348 0.454,0.348l0.079,-0.005l0.026,-0.005c1.21,-0.285 2.478,-0.427 3.772,-0.427c3.997,0 7.251,1.34 8.463,1.914c0.064,0.032 0.132,0.046 0.203,0.046c0.172,0 0.327,-0.092 0.41,-0.242l0.044,-0.074c0.063,-0.113 0.076,-0.242 0.039,-0.361c-0.037,-0.125 -0.126,-0.23 -0.247,-0.291Z" style="fill:#242f60;fill-rule:nonzero;"/><path d="M205.254,122.904c-1.258,-0.609 -4.638,-2.026 -8.858,-2.026c-1.386,0 -2.75,0.156 -4.058,0.461c-0.121,0.031 -0.222,0.105 -0.288,0.215c-0.067,0.113 -0.086,0.243 -0.054,0.365l0.019,0.083c0.057,0.206 0.244,0.349 0.454,0.349l0.079,-0.006l0.026,-0.007c1.209,-0.281 2.479,-0.424 3.772,-0.424c3.997,0 7.253,1.339 8.464,1.914c0.063,0.031 0.131,0.047 0.202,0.047c0.17,0 0.326,-0.094 0.409,-0.245l0.041,-0.073c0.061,-0.111 0.075,-0.24 0.037,-0.365c-0.038,-0.124 -0.127,-0.229 -0.245,-0.288Z" style="fill:#242f60;fill-rule:nonzero;"/><path d="M193.507,110.238c0.922,-0.157 1.878,-0.238 2.84,-0.238c3.996,0 7.251,1.339 8.466,1.917c0.062,0.028 0.13,0.044 0.198,0.044c0.172,0 0.329,-0.093 0.41,-0.242l0.044,-0.078c0.063,-0.114 0.077,-0.244 0.04,-0.364c-0.037,-0.126 -0.125,-0.23 -0.246,-0.29c-1.224,-0.592 -4.477,-1.959 -8.562,-2.025l0.005,-1.793c3.858,0.076 6.946,1.356 8.107,1.913c0.064,0.029 0.132,0.045 0.202,0.045c0.173,0 0.328,-0.094 0.411,-0.244l0.044,-0.072c0.062,-0.115 0.076,-0.245 0.038,-0.367c-0.039,-0.123 -0.127,-0.228 -0.245,-0.286c-0.666,-0.322 -4.157,-1.909 -8.555,-2.019l0.005,-1.99c3.836,0.079 6.933,1.356 8.1,1.911c0.064,0.03 0.132,0.046 0.202,0.046c0.172,0 0.329,-0.093 0.41,-0.244l0.044,-0.076c0.063,-0.114 0.078,-0.243 0.038,-0.369c-0.039,-0.125 -0.128,-0.226 -0.244,-0.28c-1.257,-0.61 -4.638,-2.028 -8.86,-2.028c-1.385,0 -2.749,0.157 -4.049,0.467l-0.369,0.185l0.009,6.789l1.517,-0.312Z" style="fill:#242f60;fill-rule:nonzero;"/><path d="M221.586,46.784c-0.035,0.004 -0.098,-0.002 -0.132,0.001c0.003,0.004 0.132,-0.001 0.132,-0.001c-2.013,0.421 -4.96,4.284 -5.482,4.991c-0.146,1.135 0.044,1.639 0.626,2.464c0.61,0.857 0.291,1.718 -0.298,2.71c-0.428,0.747 -1.28,2.793 -1.552,3.785c-0.494,0.542 -1.194,1.019 -1.808,1.203c-0.127,-0.07 -0.178,-0.444 -0.178,-0.444c-0.969,-1.427 -2.73,-1.259 -2.73,-1.259c-1.902,0.324 -1.975,0.925 -1.975,0.925c0.408,-0.045 1.647,0.445 1.647,0.445c0.005,0.292 0.504,0.562 0.504,0.562c-1.156,-0.214 -2.132,0.456 -2.132,0.456c-1.764,1.216 -1.142,2.549 -1.142,2.549c0.004,-1.048 1.535,-1.293 1.535,-1.293c0.667,0.612 3.263,-0.447 3.263,-0.447l-2.285,1.872c-0.86,1.148 -0.35,2.296 -0.35,2.296c0.035,-0.846 1.196,-1.136 1.196,-1.136c0.776,-0.082 1.046,-0.475 1.046,-0.475c1.408,-0.301 1.517,-1.749 1.517,-1.749c2.137,-0.892 4.297,-0.417 4.297,-0.417c1.323,0.764 2.247,1.363 2.247,1.363l0.251,-0.389c0.985,-0.212 1.462,0.986 1.462,0.986c0.336,-1.581 -0.91,-2.111 -0.91,-2.111c-0.508,-0.604 -1.459,-0.567 -1.459,-0.567l-1.596,-0.448c-0.013,-0.021 -0.481,-0.172 -0.493,-0.196c-0.142,-0.395 -0.355,-0.856 -0.283,-1.285c0.111,-0.441 0.246,-0.791 0.405,-1.124c0.833,-1.117 2.092,-2.474 2.512,-3.361c0.447,-0.931 0.754,-2.429 1.955,-3.068c0.488,-0.247 1.118,-0.482 1.662,-0.734l0.002,0.002c0,0 0.021,-0.011 0.051,-0.028c0.289,-0.136 0.55,-0.276 0.744,-0.425c0.978,-0.524 1.607,-0.969 1.607,-0.969c-0.81,-0.746 -2.272,-2.182 -3.856,-4.684Z" style="fill:#242f60;fill-rule:nonzero;"/><path d="M216.748,45.117c1.47,0.364 2.289,1.626 2.435,1.87c0.596,-0.489 1.207,-0.873 1.763,-0.989c0,0 -1.571,-2.639 -4.094,-2.438c-0.041,0 -0.085,0.004 -0.128,0.006c-0.004,0 -0.009,0 -0.013,0l-0.001,0.002c-1.286,0.088 -3.599,1.301 -8.89,4.759c-8.166,5.339 -12.496,2.419 -12.496,2.419c-1.534,4.127 -4.011,5.145 -4.011,5.145c0,0 0.732,0.699 2.112,1.362c0.041,-0.037 0.075,-0.068 0.116,-0.109c0.447,-0.433 1.014,-1.052 1.526,-1.723c0.259,-0.333 0.5,-0.681 0.715,-1.016c0.214,-0.336 0.407,-0.657 0.553,-0.943c0.155,-0.281 0.27,-0.523 0.345,-0.696c0.079,-0.172 0.124,-0.27 0.124,-0.27c0,0 -0.023,0.105 -0.062,0.291c-0.036,0.185 -0.094,0.45 -0.185,0.765c-0.081,0.317 -0.199,0.68 -0.34,1.067c-0.14,0.387 -0.306,0.797 -0.493,1.196c-0.328,0.719 -0.714,1.404 -1.055,1.947c0.824,0.282 1.79,0.512 2.895,0.607c0.033,-0.047 0.064,-0.088 0.098,-0.139c0.356,-0.51 0.796,-1.226 1.17,-1.982c0.191,-0.377 0.361,-0.765 0.509,-1.134c0.146,-0.37 0.272,-0.722 0.363,-1.03c0.097,-0.306 0.164,-0.567 0.205,-0.75c0.045,-0.184 0.07,-0.289 0.07,-0.289c0,0 -0.001,0.108 -0.004,0.297c-0.001,0.189 -0.008,0.461 -0.036,0.786c-0.02,0.327 -0.067,0.707 -0.131,1.114c-0.064,0.406 -0.149,0.84 -0.256,1.267c-0.164,0.68 -0.377,1.345 -0.584,1.904c1.12,-0.024 2.353,-0.193 3.692,-0.566c0.022,-0.064 0.043,-0.121 0.067,-0.192c0.197,-0.59 0.416,-1.401 0.56,-2.232c0.076,-0.415 0.131,-0.835 0.167,-1.231c0.037,-0.397 0.059,-0.77 0.058,-1.091c0.007,-0.321 -0.003,-0.59 -0.015,-0.777c-0.009,-0.189 -0.014,-0.297 -0.014,-0.297c0,0 0.029,0.103 0.08,0.286c0.053,0.182 0.123,0.444 0.187,0.764c0.073,0.319 0.135,0.696 0.189,1.105c0.054,0.408 0.095,0.847 0.113,1.288c0.035,0.675 0.021,1.352 -0.017,1.932c0.883,-0.324 1.806,-0.733 2.77,-1.252c0.38,-0.204 0.746,-0.406 1.109,-0.607c-0.003,-0.547 -0.037,-1.191 -0.117,-1.837c-0.048,-0.419 -0.118,-0.837 -0.198,-1.227c-0.081,-0.39 -0.169,-0.753 -0.262,-1.061c-0.088,-0.308 -0.176,-0.562 -0.242,-0.738c-0.063,-0.179 -0.099,-0.28 -0.099,-0.28c0,0 0.057,0.091 0.158,0.25c0.105,0.16 0.248,0.39 0.403,0.677c0.163,0.284 0.333,0.627 0.502,1.002c0.171,0.375 0.339,0.783 0.484,1.2c0.173,0.478 0.317,0.962 0.436,1.417c1.159,-0.66 2.209,-1.295 3.14,-1.9c-0.074,-0.573 -0.212,-1.314 -0.417,-2.05c-0.104,-0.384 -0.228,-0.765 -0.358,-1.119c-0.13,-0.353 -0.263,-0.681 -0.394,-0.954c-0.123,-0.278 -0.241,-0.504 -0.326,-0.66c-0.084,-0.158 -0.132,-0.248 -0.132,-0.248c0,0 0.067,0.077 0.185,0.21c0.122,0.133 0.289,0.328 0.478,0.572c0.195,0.242 0.404,0.537 0.622,0.861c0.215,0.324 0.435,0.68 0.635,1.048c0.303,0.546 0.571,1.117 0.781,1.619c0.588,-0.412 1.113,-0.807 1.565,-1.182l0.001,0l0.491,-0.372c0,0 0.086,-0.589 -0.135,-1.098c-0.12,-0.29 -0.251,-0.587 -0.399,-0.882c-0.173,-0.359 -0.366,-0.71 -0.56,-1.032c-0.194,-0.323 -0.386,-0.621 -0.565,-0.864c-0.174,-0.25 -0.333,-0.451 -0.445,-0.587c-0.113,-0.14 -0.176,-0.22 -0.176,-0.22c0,0 0.08,0.064 0.221,0.173c0.144,0.108 0.347,0.266 0.577,0.472c0.236,0.2 0.498,0.451 0.772,0.728c0.273,0.278 0.552,0.587 0.82,0.912c0.041,0.049 0.079,0.1 0.12,0.15c0,0 0.713,0.889 0.707,1.755c0,0 0.99,-1.386 2.216,-2.587c-0.255,-1.737 -1.853,-2.622 -1.655,-2.574Z" style="fill:#242f60;fill-rule:nonzero;"/><path d="M181.035,29.753c2.752,0.444 6.663,-1.275 8.23,-3.056c-0.244,-0.483 -1.011,-0.675 -1.451,-0.608c-2.086,1.558 -6.531,3.548 -9.384,1.381c0,0 -2.686,-1.974 -0.881,-5.168c0,0 0.508,1.627 1.447,1.723c0,0 0.211,-2.688 1.805,-3.195c0,0 -2.22,-0.846 -3.991,0.936c-2.176,2.19 -0.588,7.209 4.225,7.987Z" style="fill:#242f60;fill-rule:nonzero;"/><path d="M197.621,46.181c2.526,-0.409 5.017,0.755 5.017,0.755c0.787,-2.775 -0.331,-3.603 -0.331,-3.603c-2.343,2.356 -4.686,2.848 -4.686,2.848Z" style="fill:#242f60;fill-rule:nonzero;"/><path d="M206.721,43.614c0,0 0.588,-2.512 -1.356,-3.661c0,0 -1.029,1.758 -2.071,2.635c0,0 0.75,1.042 0.466,2.003c0,0 1.639,-1.488 2.961,-0.977Z" style="fill:#242f60;fill-rule:nonzero;"/><path d="M213.467,37.493c0,0 0.842,-3.194 3.822,-3.194c0,0 -1.651,-2.729 -5.67,-2.806c-4.016,-0.079 -4.31,3.171 -4.31,3.171l0,0.093c0.002,-0.043 2.316,-1.328 4.732,0.698c0,0 1.26,0.878 1.426,2.038Z" style="fill:#242f60;fill-rule:nonzero;"/><path d="M189.352,40.528c-0.239,0.21 -0.501,0.474 -0.772,0.762c-0.271,0.287 -0.548,0.603 -0.806,0.933c-0.523,0.654 -0.983,1.349 -1.292,1.883c-0.068,0.115 -0.124,0.219 -0.179,0.317c-0.009,0.029 -0.02,0.059 -0.028,0.088c-0.305,1.014 -0.535,2.029 -0.633,2.979c0.221,-0.261 0.452,-0.527 0.697,-0.783c0.299,-0.317 0.612,-0.618 0.915,-0.889c0.303,-0.269 0.591,-0.512 0.853,-0.703c0.254,-0.197 0.474,-0.348 0.63,-0.451c0.155,-0.105 0.244,-0.163 0.244,-0.163c0,0 -0.073,0.077 -0.201,0.213c-0.129,0.134 -0.308,0.329 -0.509,0.575c-0.206,0.239 -0.428,0.533 -0.656,0.853c-0.227,0.32 -0.456,0.67 -0.666,1.029c-0.426,0.715 -0.783,1.46 -1.014,2.028c-0.093,0.221 -0.159,0.403 -0.215,0.555c0.145,0.667 0.419,1.25 0.858,1.711c-0.012,-0.03 0.142,-0.316 0.392,-0.737c0.528,-0.939 1.114,-1.825 1.729,-2.715c-0.002,-0.002 -0.003,-0.003 -0.003,-0.003c0.95,-1.418 2.231,-2.952 2.653,-3.164c0,0 -0.917,-2.894 -0.036,-5.832c0.392,-1.881 2.094,-4.924 2.274,-6.984c-0.563,0.7 -0.998,1.192 -2.274,1.363l-0.24,0.684l0,-0.002l-0.969,1.862c0.49,-0.211 0.976,-0.379 1.359,-0.484c0.226,-0.066 0.416,-0.107 0.55,-0.135c0.133,-0.029 0.207,-0.046 0.207,-0.046c0,0 -0.066,0.04 -0.184,0.108c-0.118,0.065 -0.284,0.163 -0.473,0.291c-0.387,0.251 -0.871,0.618 -1.312,1.025c-0.444,0.406 -0.846,0.844 -1.121,1.186c-0.044,0.054 -0.079,0.099 -0.118,0.147c-0.144,0.274 -0.296,0.567 -0.467,0.909c-0.265,0.531 -0.546,1.123 -0.833,1.765c-0.132,0.295 -0.262,0.6 -0.391,0.91c0.314,-0.25 0.635,-0.485 0.945,-0.694c0.339,-0.227 0.66,-0.43 0.947,-0.585c0.28,-0.162 0.52,-0.283 0.691,-0.363c0.167,-0.082 0.264,-0.129 0.264,-0.129c0,0 -0.083,0.066 -0.228,0.184c-0.148,0.116 -0.354,0.285 -0.588,0.502Z" style="fill:#242f60;fill-rule:nonzero;"/><path d="M224.562,29.035c-0.036,-1.596 0.344,-3.428 1.619,-4.295c2.813,-1.915 10.448,-1.52 10.448,-1.52c-1.589,-0.636 -17.269,-3.197 -25.367,4.469c0,0 7.413,-3.876 12.763,0.819c0.198,0.126 0.372,0.406 0.537,0.527Z" style="fill:#242f60;fill-rule:nonzero;"/><path d="M222.972,29.035c0,0 -1.952,-1.219 -4.168,-1.623c-2.784,-0.507 -7.753,0.395 -9.715,3.598c4.997,-1.405 7.51,0.638 8.963,2.108c0.353,-3.588 4.166,-3.922 4.92,-4.083Z" style="fill:#242f60;fill-rule:nonzero;"/><path d="M207.569,40.996c1.305,-2.993 4.971,-2.839 4.971,-2.839c0.01,-0.555 -1.03,-2.261 -3.292,-2.782c-2.5,-0.577 -3.609,3.4 -3.609,3.4c1.734,0.296 1.93,2.221 1.93,2.221Z" style="fill:#242f60;fill-rule:nonzero;"/><path d="M191.926,45.624c-0.514,0.149 -0.935,0.842 -0.935,0.842c-1.418,1.877 -2.327,3.339 -3.695,5.726c-1.705,2.754 -3.361,6.738 -5.546,8.825c-0.194,0.182 -0.276,0.295 -0.585,0.404c-0.309,0.111 -0.679,-0.44 -0.679,-0.44c-0.969,-1.427 -2.729,-1.26 -2.729,-1.26c-1.902,0.324 -1.976,0.926 -1.976,0.926c0.409,-0.045 1.648,0.443 1.648,0.443c0.004,0.293 0.503,0.564 0.503,0.564c-1.155,-0.214 -2.131,0.455 -2.131,0.455c-1.764,1.216 -1.142,2.549 -1.142,2.549c0.003,-1.048 1.535,-1.291 1.535,-1.291c0.667,0.611 3.263,-0.448 3.263,-0.448l-2.285,1.873c-0.859,1.147 -0.35,2.294 -0.35,2.294c0.035,-0.845 1.194,-1.135 1.194,-1.135c0.778,-0.082 1.048,-0.476 1.048,-0.476c1.407,-0.3 1.516,-1.749 1.516,-1.749c2.136,-0.892 4.297,-0.417 4.297,-0.417c1.323,0.764 2.247,1.362 2.247,1.362l0.251,-0.388c0.985,-0.211 1.462,0.986 1.462,0.986c0.336,-1.58 -0.91,-2.11 -0.91,-2.11c-0.508,-0.603 -1.459,-0.567 -1.459,-0.567l-1.455,-0.409c-0.115,-0.181 -0.222,-0.38 -0.309,-0.622c-0.176,-1.292 0.759,-2.511 1.384,-3.487c1.918,-2.089 4.895,-2.926 6.285,-4.444c1.235,-1.386 2.477,-3.561 2.273,-6.355c-0.083,-1.206 -2.225,-1.771 -2.72,-1.651Z" style="fill:#242f60;fill-rule:nonzero;"/><path d="M176.34,37.43c0.892,2.138 0.417,4.298 0.417,4.298c-0.765,1.323 -1.363,2.247 -1.363,2.247l0.389,0.251c0.21,0.984 -0.986,1.462 -0.986,1.462c1.581,0.335 2.11,-0.91 2.11,-0.91c0.603,-0.509 0.568,-1.459 0.568,-1.459l0.408,-1.455c0.181,-0.116 0.379,-0.223 0.623,-0.309c0.784,-0.411 1.444,0.061 1.941,0.5c0.182,0.172 0.366,0.344 0.543,0.535c1.068,0.97 1.518,2.447 2.289,3.607l-0.003,0.008l1.122,1.788c0.058,-1.092 0.313,-2.287 0.672,-3.481c0.193,-0.639 0.413,-1.272 0.649,-1.893l-0.927,0c-0.047,-0.007 -0.097,-0.007 -0.152,0c-1.297,-0.333 -2.31,-1.531 -3.529,-2.556c-0.378,-0.352 -1.289,-1.024 -2.028,-1.559c-0.215,-0.154 -0.328,-0.179 -0.439,-0.488c-0.11,-0.309 0.442,-0.68 0.442,-0.68c1.425,-0.968 1.258,-2.729 1.258,-2.729c-0.323,-1.902 -0.925,-1.975 -0.925,-1.975c0.046,0.409 -0.444,1.647 -0.444,1.647c-0.292,0.005 -0.562,0.504 -0.562,0.504c0.213,-1.155 -0.456,-2.131 -0.456,-2.131c-1.217,-1.765 -2.55,-1.142 -2.55,-1.142c1.048,0.003 1.293,1.535 1.293,1.535c-0.611,0.668 0.447,3.263 0.447,3.263l-1.872,-2.285c-1.148,-0.86 -2.296,-0.351 -2.296,-0.351c0.845,0.036 1.135,1.196 1.135,1.196c0.083,0.776 0.477,1.047 0.477,1.047c0.301,1.407 1.749,1.515 1.749,1.515Z" style="fill:#242f60;fill-rule:nonzero;"/><path d="M201.874,42.271l0.002,0.001c2.003,-1.676 3.673,-5.742 4.154,-7.345c5.744,-19.119 31.642,-12.242 31.642,-12.242c-7.972,-3.087 -16.007,-2.056 -16.007,-2.056c0,0 -11.954,0.594 -16.351,10.466c-2.635,5.912 -3.967,7.951 -4.526,8.598c-0.001,0 -0.001,-0.002 -0.002,-0.003c-3.066,3.239 -5.884,2.928 -5.884,2.928c2.954,-0.843 4.437,-2.99 4.822,-3.628c0,0 0.383,-0.613 0.405,-0.833c-0.258,0.039 -0.941,0.238 -1.247,0.242c-0.92,0.035 -1.742,-0.741 -1.926,-1.811c-0.678,0.733 -1.164,1.569 -1.164,1.569c0.092,-1.022 0.836,-2.1 1.381,-2.763c0.128,-0.189 0.292,-0.367 0.461,-0.526c0.074,-0.076 0.12,-0.123 0.12,-0.123l0.005,0.009c0.372,-0.328 0.728,-0.548 0.728,-0.548c0,0 -1.383,-0.813 -1.449,-2.27c-0.772,0.703 -1.358,1.571 -1.358,1.571c0.178,-1.116 1.145,-2.245 1.733,-2.841c0.492,-0.649 1.29,-0.857 1.29,-0.857c0,0 -1.474,-0.296 -1.235,-2.83c-0.582,0.608 -0.99,1.212 -0.99,1.212c0.145,-0.914 0.822,-1.836 1.384,-2.468c0.466,-0.764 1.163,-1.031 1.163,-1.031c-0.144,-0.102 -0.275,-0.213 -0.398,-0.332c-0.151,-0.127 -0.331,-0.284 -0.53,-0.472c-0.275,-0.265 -0.584,-0.59 -0.875,-0.972c-0.284,-0.387 -0.567,-0.829 -0.71,-1.336c-0.078,-0.248 -0.111,-0.515 -0.095,-0.774c0.007,-0.26 0.089,-0.508 0.191,-0.727c0.111,-0.216 0.247,-0.409 0.404,-0.562c0.147,-0.164 0.315,-0.286 0.466,-0.399c0.31,-0.216 0.591,-0.359 0.79,-0.449c0.199,-0.089 0.313,-0.14 0.313,-0.14c0,0 -0.11,0.057 -0.303,0.159c-0.192,0.103 -0.306,0.17 -0.597,0.401c-0.141,0.12 -0.296,0.249 -0.425,0.413c-0.143,0.156 -0.256,0.347 -0.347,0.551c-0.08,0.207 -0.138,0.433 -0.13,0.666c0,0.233 0.045,0.467 0.13,0.69c0.227,0.604 0.44,1.066 0.85,1.478c-0.164,-0.501 -0.181,-0.909 -0.122,-1.481c0.158,-1.8 2.801,-2.935 2.801,-2.935c0,0 -0.304,-0.369 -0.964,-0.442c0,0 -1.853,-0.481 -5.729,2.063c-1.947,-1.11 -4.855,-0.581 -6.754,1.282c0,0 -2.507,-1.185 -5.683,1.79l3.169,0.921c0.938,0.47 1.096,0.622 1.088,1.783c1.431,-0.904 2.668,-0.74 3.736,-0.228c0.632,0.312 1.975,1.218 1.531,3.003c-0.146,0.256 -0.302,0.5 -0.5,0.703c-1.262,1.354 -3.215,1.437 -4.777,1.598c-0.523,0.079 -1.039,1.066 -1.266,1.595l0.442,-0.105c2.418,-0.704 4.302,0.74 6.695,-0.258c1.907,-1.129 2.513,-2.469 2.492,-4.786c-0.275,-3.431 -1.531,-4.294 -2.021,-4.451c-0.993,-0.249 -1.616,0.795 -2.169,0.456c-0.665,-0.41 -0.409,-1.449 -0.409,-1.449c0.659,-0.261 1.969,0.149 2.501,0.351c0.705,0.364 2.524,1.256 2.844,5.216c0.149,1.214 0.109,2.104 0.097,3.576c-0.38,4.303 -2.176,5.565 -2.55,10.183c0.072,2.645 0.307,3.085 0.856,3.523c1.014,0.812 4.25,0.583 5.756,-0.213c1.144,-0.605 2.163,-1.415 3.051,-2.311Z" style="fill:#242f60;fill-rule:nonzero;"/><path d="M195.634,49.905c0.002,-0.005 0.005,-0.012 0.01,-0.024c-0.005,0.01 -0.008,0.017 -0.01,0.024Z" style="fill:#242f60;fill-rule:nonzero;"/><path d="M195.634,49.905c-0.004,0.012 -0.004,0.01 0,0Z" style="fill:#242f60;fill-rule:nonzero;"/><path d="M195.644,49.881c0.008,-0.018 0.015,-0.038 0.02,-0.048c-0.008,0.018 -0.014,0.036 -0.02,0.048Z" style="fill:#242f60;fill-rule:nonzero;"/><path d="M244.753,58.994c-0.728,-0.203 -1.453,0.371 -1.453,0.371l-1.493,0.549c-0.084,0.079 -1.157,-0.101 -1.258,-0.027c-0.268,-0.652 -0.563,-1.583 -0.975,-3.34l-0.003,-0.015c-0.06,-0.251 -0.119,-0.517 -0.183,-0.803l-0.007,0l-0.342,-1.456l-0.323,-2.67c0,0 -0.019,-0.07 -0.053,-0.184c-0.456,-2.117 -1.276,-3.142 -1.339,-3.244l-0.001,0.003c-2.339,-3.757 -7.24,-5.407 -7.295,-5.418c0.219,0.042 4.493,0.739 7.162,3.864c1.226,-0.27 2.405,-0.711 3.59,-1.374c5.062,-2.834 8.013,-10.355 3.89,-15.501c-4.069,-5.08 -12.229,-2.76 -13.122,1.841c-0.724,3.744 2.105,5.724 2.105,5.724c-0.679,-2.404 2.412,-5.029 2.412,-5.029c-0.879,-1.069 -3.268,-0.26 -3.268,-0.26c2.414,-5.029 6.989,-3.466 6.989,-3.466c6.95,2.67 5.415,11.358 -0.945,13.724c-2.077,0.773 -4.193,0.482 -6.067,-0.243c-2.739,-1.377 -1.439,-5.522 -1.439,-5.522c0,0 -1.329,1.586 -2.99,1.473c-0.003,0 -0.003,-0.001 -0.005,-0.001c0.149,0.948 0.667,1.962 0.667,1.962c-0.937,-0.741 -1.383,-2.675 -1.383,-2.675l0.001,0c-0.435,-1.067 -0.384,-2.891 -0.552,-2.33c-0.243,0.799 -0.889,2.127 -2.853,2.287c-0.018,0.002 -0.035,-0.004 -0.053,-0.003c0.356,0.723 0.842,1.337 0.842,1.337c-0.684,-0.349 -1.267,-1.222 -1.596,-1.8c-0.619,-0.862 -0.836,-2.615 -0.836,-2.615c-1.404,2.605 -5.427,3.164 -6.969,3.255c-2.343,-0.282 -1.724,2.83 -1.724,2.83c-0.846,-0.447 -1.041,-1.056 -2.13,-1.069c-0.496,-0.026 -1.489,0.253 -1.925,0.592c-1.23,0.742 -2.181,1.979 -2.296,5.227c-1.173,-0.947 -2.367,-0.396 -3.552,0.478c0,0 -0.298,1.682 -1.221,2.513c-1.478,-0.807 -3.135,-1.115 -3.509,-1.126l0.006,-0.001c0,0 -1.34,-0.165 -3.346,0.084c0,0 0.29,1.585 -0.244,2.887c3.014,2.012 7.789,-0.104 10.436,-1.593c3.018,-1.663 5.852,-4.061 9.022,-5.28c1.591,-0.716 3.279,-0.426 4.627,0.509c1.932,1.342 4.127,5.084 6.436,7.325c0.13,0.127 1.52,2.003 6.327,2.236c0,0 2.521,-0.049 4.402,2.937c0.086,0.143 0.174,0.295 0.266,0.456c0.067,0.122 0.136,0.237 0.2,0.368c0.445,0.839 0.908,1.897 1.269,3.23c-0.053,0.369 -0.119,0.77 -0.227,1.117c-0.055,0.197 -0.131,0.356 -0.213,0.499c-0.002,0 -0.004,-0.001 -0.005,-0.001c-0.053,0.324 -0.468,-0.152 -0.468,-0.152c-1.539,-0.614 -2.825,0.532 -2.825,0.532c-1.312,1.355 -1.039,1.891 -1.039,1.891c0.293,-0.271 1.531,-0.581 1.531,-0.581c0.164,0.237 0.702,0.173 0.702,0.173c-1.021,0.487 -1.418,1.595 -1.418,1.595c-0.716,2.008 0.501,2.744 0.501,2.744c-0.57,-0.862 0.494,-1.939 0.494,-1.939c0.857,0.118 2.31,-2.237 2.31,-2.237l-0.765,2.844c-0.045,1.433 0.982,2.082 0.982,2.082c-0.435,-0.713 0.314,-1.616 0.314,-1.616c0.562,-0.512 0.559,-0.99 0.559,-0.99c0.937,-1.054 0.229,-2.302 0.229,-2.302c-0.131,-1.729 3.135,-2.804 3.135,-2.804c1.453,-0.133 2.487,-0.634 2.487,-0.634c0.656,-0.738 1.684,-0.029 1.684,-0.029c-0.602,-1.488 -1.867,-1.209 -1.867,-1.209Z" style="fill:#242f60;fill-rule:nonzero;"/><path d="M258.894,74.901l-0.136,0.047c-1.588,1.054 -12.893,7.535 -41.653,-0.883c-35.037,-10.257 -56.402,7.381 -56.402,7.381l0.277,0.066c3.141,-1.64 24.587,-12.026 56.87,-2.586c31.212,9.137 41.044,-4.025 41.044,-4.025Z" style="fill:#242f60;fill-rule:nonzero;"/><path d="M209.786,176.523c0,0 55.849,-14.268 62.707,-59.134l-0.256,0.299c-5.019,32.689 -62.451,50.554 -62.451,50.554l0.027,0c0,0 -57.434,-17.865 -62.451,-50.554l-0.255,-0.299c6.855,44.866 62.706,59.134 62.706,59.134" style="fill:#242f60;fill-rule:nonzero;"/><path d="M209.772,9.775c21.193,0 56.168,8.929 59.372,14.854c1.571,2.443 2.856,15.138 3.111,17.376l0.264,0.392c0,0 0.605,-12.902 0.386,-16.813c-0.451,-8.091 -28.964,-22.498 -63.133,-22.498l0.054,0c-34.168,0 -62.68,14.407 -63.132,22.498c-0.219,3.911 0.386,16.813 0.386,16.813l0.263,-0.392c0.255,-2.238 1.54,-14.933 3.112,-17.376c3.203,-5.925 38.178,-14.854 59.371,-14.854" style="fill:#242f60;fill-rule:nonzero;"/></svg>